<?xml version="1.0" encoding="UTF-8"?>
<svg xmlns="http://www.w3.org/2000/svg" xmlns:xlink="http://www.w3.org/1999/xlink" viewBox="0 0 64 64" width="64px" height="64px">
<g id="surface985314">
<path style=" stroke:none;fill-rule:nonzero;fill:rgb(51.764709%,56.862748%,63.921571%);fill-opacity:1;" d="M 32 5.332031 C 17.273438 5.332031 5.332031 17.273438 5.332031 32 C 5.332031 46.726562 17.273438 58.667969 32 58.667969 C 46.726562 58.667969 58.667969 46.726562 58.667969 32 C 58.667969 17.273438 46.726562 5.332031 32 5.332031 Z M 42.667969 34.667969 L 34.667969 34.667969 L 34.667969 42.667969 C 34.667969 44.136719 33.472656 45.332031 32 45.332031 C 30.527344 45.332031 29.332031 44.136719 29.332031 42.667969 L 29.332031 34.667969 L 21.332031 34.667969 C 19.863281 34.667969 18.667969 33.472656 18.667969 32 C 18.667969 30.527344 19.863281 29.332031 21.332031 29.332031 L 29.332031 29.332031 L 29.332031 21.332031 C 29.332031 19.863281 30.527344 18.667969 32 18.667969 C 33.472656 18.667969 34.667969 19.863281 34.667969 21.332031 L 34.667969 29.332031 L 42.667969 29.332031 C 44.136719 29.332031 45.332031 30.527344 45.332031 32 C 45.332031 33.472656 44.136719 34.667969 42.667969 34.667969 Z M 42.667969 34.667969 "/>
</g>
</svg>
